<svg width="34" height="34" viewBox="0 0 34 34" fill="none" xmlns="http://www.w3.org/2000/svg">
<path d="M11.05 2.83334H22.95C27.4834 2.83334 31.1667 6.51668 31.1667 11.05V22.95C31.1667 25.1292 30.301 27.2192 28.7601 28.7601C27.2192 30.301 25.1292 31.1667 22.95 31.1667H11.05C6.51668 31.1667 2.83334 27.4834 2.83334 22.95V11.05C2.83334 8.87082 3.69903 6.78087 5.23995 5.23995C6.78087 3.69903 8.87082 2.83334 11.05 2.83334ZM10.7667 5.66668C9.41407 5.66668 8.11687 6.204 7.16043 7.16043C6.204 8.11687 5.66668 9.41407 5.66668 10.7667V23.2334C5.66668 26.0525 7.94751 28.3334 10.7667 28.3334H23.2334C24.586 28.3334 25.8832 27.796 26.8396 26.8396C27.796 25.8832 28.3334 24.586 28.3334 23.2334V10.7667C28.3334 7.94751 26.0525 5.66668 23.2334 5.66668H10.7667ZM24.4375 7.79168C24.9072 7.79168 25.3576 7.97825 25.6897 8.31034C26.0218 8.64244 26.2083 9.09286 26.2083 9.56251C26.2083 10.0322 26.0218 10.4826 25.6897 10.8147C25.3576 11.1468 24.9072 11.3333 24.4375 11.3333C23.9679 11.3333 23.5174 11.1468 23.1853 10.8147C22.8533 10.4826 22.6667 10.0322 22.6667 9.56251C22.6667 9.09286 22.8533 8.64244 23.1853 8.31034C23.5174 7.97825 23.9679 7.79168 24.4375 7.79168ZM17 9.91668C18.8786 9.91668 20.6803 10.663 22.0087 11.9913C23.3371 13.3197 24.0833 15.1214 24.0833 17C24.0833 18.8786 23.3371 20.6803 22.0087 22.0087C20.6803 23.3371 18.8786 24.0833 17 24.0833C15.1214 24.0833 13.3197 23.3371 11.9913 22.0087C10.663 20.6803 9.91668 18.8786 9.91668 17C9.91668 15.1214 10.663 13.3197 11.9913 11.9913C13.3197 10.663 15.1214 9.91668 17 9.91668ZM17 12.75C15.8728 12.75 14.7918 13.1978 13.9948 13.9948C13.1978 14.7918 12.75 15.8728 12.75 17C12.75 18.1272 13.1978 19.2082 13.9948 20.0052C14.7918 20.8022 15.8728 21.25 17 21.25C18.1272 21.25 19.2082 20.8022 20.0052 20.0052C20.8022 19.2082 21.25 18.1272 21.25 17C21.25 15.8728 20.8022 14.7918 20.0052 13.9948C19.2082 13.1978 18.1272 12.75 17 12.75Z" fill="#2D2E32"/>
</svg>
